<svg width="800" height="465" xmlns="http://www.w3.org/2000/svg" xml:space="preserve" enable-background="new 0 0 2000 2000" version="1.1">
  <path stroke="null" id="svg_1" d="m118.80054,210.00034c-0.57393,-3.41378 -1.0475,-6.82808 -1.42019,-10.23193c-0.71715,-6.57771 -1.07677,-13.09948 -1.07677,-19.53449c0,-49.80479 20.18787,-94.89898 52.82811,-127.53452c32.63606,-32.64077 77.72973,-52.82811 127.53452,-52.82811c36.44082,0 71.11648,10.99194 100.18875,30.41509c27.01334,18.04426 49.15664,43.36979 63.34753,73.90824c8.60475,-5.07284 17.7573,-9.11387 27.25901,-12.05721c12.25532,-3.79274 25.03595,-5.75549 37.92583,-5.75549c35.42312,0 67.49466,14.35763 90.71108,37.57352c22.42452,22.42504 36.58509,53.1156 37.5223,87.11122c1.57229,-0.23104 3.1425,-0.43437 4.70643,-0.60268c4.70643,-0.51539 9.34542,-0.77203 13.89242,-0.77203c35.42364,0 67.49728,14.35815 90.71108,37.57405c23.21589,23.2138 37.57405,55.28587 37.57405,90.70794c0,35.42521 -14.35815,67.49728 -37.57405,90.71369c-23.2138,23.21328 -55.20589,37.27245 -90.63163,37.27245c-184.65613,0 -369.31643,-0.046 -553.97308,-0.05802c-33.50375,-2.48075 -63.20901,-17.67314 -84.53481,-40.63552c-21.33886,-22.97702 -34.29983,-53.72037 -34.29983,-87.29207c0,-35.4226 14.3592,-67.49414 37.57405,-90.70794c21.23746,-21.23746 49.88843,-35.06245 81.73521,-37.26617z" clip-rule="evenodd" fill-rule="evenodd"/>
</svg>